<svg width="364" height="312" viewBox="0 0 364 312" fill="none" xmlns="http://www.w3.org/2000/svg">
<g clip-path="url(#clip0_528_6249)">
<path d="M121.338 140.215C121.338 125.903 130.661 114.3 142.16 114.3H209.887C215.037 114.3 220.005 111.926 223.83 107.634L242.676 86.4882V0H146.124L121.338 22.3708V123.94H24.7854L0 146.311V247.88H96.5503L121.338 225.512V140.215Z" fill="#202124"/>
<path d="M267.447 64.1198L242.662 86.4906V171.785C242.662 186.097 233.339 197.7 221.84 197.7H154.11C148.961 197.7 143.993 200.077 140.168 204.369L121.324 225.517V312H217.874L242.662 289.632V188.06H339.212L364 165.691V64.1198H267.447Z" fill="#202124"/>
</g>
<defs>
<clipPath id="clip0_528_6249">
<rect width="364" height="312" fill="white"/>
</clipPath>
</defs>
</svg>
