<svg width="223" height="301" viewBox="0 0 223 301" fill="none" xmlns="http://www.w3.org/2000/svg">
<g clip-path="url(#clip0_258_470)">
<path d="M153.447 300.834L222.833 231.038C222.833 231.038 223 230.801 223 230.658V23.835C223 10.683 212.287 0 199.045 0H79.8137C73.4191 0 67.3108 2.51644 62.7773 7.02705L0.167436 69.3447C-0.166611 69.677 0.0719941 70.2468 0.549204 70.2468L152.35 70.318C152.636 70.318 152.898 70.5554 152.898 70.864V271.776C152.898 272.322 152.183 272.512 151.896 272.061L131.066 238.659C128.823 234.29 124.433 231.228 119.494 231.204C119.47 231.204 119.422 231.204 119.398 231.204H79.2411C72.918 231.204 66.8575 233.697 62.3717 238.16L0.167436 300.05C-0.166611 300.383 0.0719941 300.953 0.549204 300.953H153.089C153.232 300.953 153.376 300.905 153.471 300.81L153.447 300.834Z" fill="#1C1D1F"/>
</g>
<defs>
<clipPath id="clip0_258_470">
<rect width="223" height="301" fill="white"/>
</clipPath>
</defs>
</svg>
