<svg width="745" height="745" viewBox="0 0 745 745" fill="none" xmlns="http://www.w3.org/2000/svg">
<rect width="745" height="745" fill="#CBD6DD"/>
<g clip-path="url(#clip0_260_264)">
<path d="M410.366 572.779L502.777 479.795C502.777 479.795 503 479.479 503 479.289V203.754C503 186.232 488.731 172 471.094 172H312.298C303.781 172 295.646 175.352 289.608 181.362L206.222 264.383C205.777 264.826 206.095 265.585 206.73 265.585L408.904 265.679C409.285 265.679 409.635 265.996 409.635 266.407V534.067C409.635 534.794 408.682 535.047 408.3 534.447L380.558 489.947C377.571 484.128 371.723 480.048 365.145 480.016C365.114 480.016 365.05 480.016 365.018 480.016H311.535C303.114 480.016 295.042 483.337 289.068 489.283L206.222 571.735C205.777 572.178 206.095 572.937 206.73 572.937H409.889C410.08 572.937 410.271 572.873 410.398 572.747L410.366 572.779Z" fill="#1C1D1F"/>
</g>
<defs>
<clipPath id="clip0_260_264">
<rect width="297" height="401" fill="white" transform="translate(206 172)"/>
</clipPath>
</defs>
</svg>
